<svg width="512" height="512" viewBox="0 0 512 512" xmlns="http://www.w3.org/2000/svg">
  <defs>
    <linearGradient id="grad" x1="0%" y1="0%" x2="100%" y2="100%">
      <stop offset="0%" style="stop-color:#667eea;stop-opacity:1" />
      <stop offset="100%" style="stop-color:#764ba2;stop-opacity:1" />
    </linearGradient>
  </defs>
  <rect width="512" height="512" fill="url(#grad)"/>
  
  <!-- QR-like pattern -->
  <g fill="white">
    <!-- Corner squares -->
    <rect x="128" y="128" width="32" height="32"/>
    <rect x="176" y="128" width="32" height="32"/>
    <rect x="224" y="128" width="32" height="32"/>
    <rect x="128" y="176" width="32" height="32"/>
    <rect x="224" y="176" width="32" height="32"/>
    <rect x="128" y="224" width="32" height="32"/>
    <rect x="176" y="224" width="32" height="32"/>
    <rect x="224" y="224" width="32" height="32"/>
    
    <!-- Center pattern -->
    <rect x="176" y="176" width="32" height="32"/>
    <rect x="272" y="176" width="32" height="32"/>
    <rect x="320" y="176" width="32" height="32"/>
    <rect x="176" y="272" width="32" height="32"/>
    <rect x="272" y="272" width="32" height="32"/>
    <rect x="320" y="272" width="32" height="32"/>
    <rect x="176" y="320" width="32" height="32"/>
    <rect x="272" y="320" width="32" height="32"/>
    <rect x="320" y="320" width="32" height="32"/>
  </g>
</svg>

