<svg width="192" height="192" viewBox="0 0 192 192" xmlns="http://www.w3.org/2000/svg">
  <defs>
    <linearGradient id="grad" x1="0%" y1="0%" x2="100%" y2="100%">
      <stop offset="0%" style="stop-color:#667eea;stop-opacity:1" />
      <stop offset="100%" style="stop-color:#764ba2;stop-opacity:1" />
    </linearGradient>
  </defs>
  <rect width="192" height="192" fill="url(#grad)"/>
  
  <!-- QR-like pattern -->
  <g fill="white">
    <!-- Corner squares -->
    <rect x="48" y="48" width="12" height="12"/>
    <rect x="66" y="48" width="12" height="12"/>
    <rect x="84" y="48" width="12" height="12"/>
    <rect x="48" y="66" width="12" height="12"/>
    <rect x="84" y="66" width="12" height="12"/>
    <rect x="48" y="84" width="12" height="12"/>
    <rect x="66" y="84" width="12" height="12"/>
    <rect x="84" y="84" width="12" height="12"/>
    
    <!-- Center pattern -->
    <rect x="66" y="66" width="12" height="12"/>
    <rect x="102" y="66" width="12" height="12"/>
    <rect x="120" y="66" width="12" height="12"/>
    <rect x="66" y="102" width="12" height="12"/>
    <rect x="102" y="102" width="12" height="12"/>
    <rect x="120" y="102" width="12" height="12"/>
    <rect x="66" y="120" width="12" height="12"/>
    <rect x="102" y="120" width="12" height="12"/>
    <rect x="120" y="120" width="12" height="12"/>
  </g>
</svg>

